<svg width="126" height="21" viewBox="0 0 126 21" fill="none" xmlns="http://www.w3.org/2000/svg">
<path d="M3.78133 14.6152C3.78133 15.3383 3.79012 15.972 3.8077 16.5165C3.83406 17.0524 3.86042 17.516 3.88679 17.9073C3.92194 18.2986 3.96148 18.6261 4.00542 18.8899C4.05815 19.1536 4.11087 19.3747 4.1636 19.5534V19.6044H1V19.5534C1.05273 19.3747 1.10106 19.1536 1.145 18.8899C1.19773 18.6261 1.24166 18.2986 1.27682 17.9073C1.31197 17.516 1.33833 17.0524 1.35591 16.5165C1.37348 15.972 1.38227 15.3383 1.38227 14.6152V6.30826C1.38227 5.58518 1.37348 4.95567 1.35591 4.41974C1.33833 3.87531 1.31197 3.40743 1.27682 3.01612C1.24166 2.6163 1.19773 2.28453 1.145 2.02082C1.10106 1.75711 1.05273 1.53593 1 1.35729V1.30625C1.72939 1.30625 2.46756 1.30625 3.21452 1.30625C3.96148 1.29774 4.68647 1.29349 5.3895 1.29349C6.09252 1.28498 6.76039 1.27647 7.39311 1.26797C8.02583 1.25095 8.59704 1.23819 9.10673 1.22968C9.61642 1.21267 10.047 1.19566 10.3985 1.17864C10.75 1.15312 11.0005 1.1276 11.1499 1.10208L10.504 2.79919C10.214 2.72263 9.87566 2.65458 9.489 2.59503C9.15506 2.54399 8.74643 2.4972 8.2631 2.45467C7.78856 2.40363 7.23933 2.37811 6.61539 2.37811C6.40449 2.37811 6.14085 2.38661 5.82449 2.40363C5.50813 2.41213 5.19617 2.42489 4.88859 2.44191C4.53708 2.45892 4.168 2.47593 3.78133 2.49295V8.93687C4.68647 8.92836 5.51692 8.90284 6.27267 8.86031C7.02842 8.81777 7.67871 8.77524 8.22356 8.73271C8.85628 8.68167 9.42748 8.62212 9.93717 8.55406L9.54172 10.4043C8.88264 10.3277 8.21477 10.2554 7.53811 10.1874C6.95812 10.1278 6.33418 10.0768 5.66631 10.0343C4.99844 9.98321 4.37011 9.95769 3.78133 9.95769V14.6152Z" fill="black"/>
<path d="M13.5753 1.30625C14.6738 1.30625 15.7635 1.30199 16.8444 1.29349C17.9341 1.28498 18.9315 1.27647 19.8366 1.26797C20.7418 1.25095 21.5151 1.22968 22.1566 1.20416C22.7981 1.17864 23.2331 1.14462 23.4616 1.10208L22.8157 2.79919C22.5257 2.72263 22.1873 2.65458 21.8007 2.59503C21.4667 2.54399 21.0581 2.4972 20.5748 2.45467C20.1002 2.40363 19.551 2.37811 18.9271 2.37811C18.7162 2.37811 18.4613 2.38661 18.1625 2.40363C17.8725 2.41213 17.5913 2.42489 17.3189 2.44191C17.0026 2.45892 16.6818 2.47593 16.3566 2.49295V9.46004C17.2618 9.45153 18.0791 9.42601 18.8084 9.38348C19.5378 9.34094 20.1574 9.29841 20.6671 9.25588C21.2646 9.20483 21.7919 9.14529 22.2489 9.07723L21.8402 10.9275C21.2339 10.8509 20.6143 10.7786 19.9816 10.7105C19.4368 10.651 18.8436 10.6 18.2021 10.5574C17.5606 10.5064 16.9454 10.4809 16.3566 10.4809V18.4815C17.3936 18.4815 18.3471 18.439 19.2171 18.3539C20.0871 18.2689 20.8472 18.171 21.4975 18.0604C22.2533 17.9413 22.9431 17.801 23.567 17.6394L23.1848 19.7065C23.0793 19.698 22.9211 19.6895 22.7102 19.681C22.4993 19.6725 22.262 19.664 21.9984 19.6555C21.7436 19.647 21.4711 19.6385 21.1811 19.63C20.8999 19.63 20.6319 19.6257 20.3771 19.6172C20.1222 19.6172 19.8937 19.6129 19.6916 19.6044C19.4983 19.6044 19.3577 19.6044 19.2698 19.6044H13.5753V19.5534C13.628 19.3747 13.6764 19.1536 13.7203 18.8899C13.773 18.6261 13.817 18.2986 13.8521 17.9073C13.8873 17.516 13.9136 17.0524 13.9312 16.5165C13.9488 15.972 13.9576 15.3383 13.9576 14.6152V6.30826C13.9576 5.58518 13.9488 4.95567 13.9312 4.41974C13.9136 3.87531 13.8873 3.40743 13.8521 3.01612C13.817 2.6163 13.773 2.28453 13.7203 2.02082C13.6764 1.75711 13.628 1.53593 13.5753 1.35729V1.30625Z" fill="black"/>
<path d="M31.7792 2.42915C30.7422 2.42915 29.8063 2.47593 28.9715 2.56951C28.1367 2.65458 27.4161 2.74815 26.8097 2.85023C26.1067 2.97784 25.4784 3.1182 24.9247 3.27132L25.307 1.20416C25.4125 1.21267 25.5706 1.22118 25.7815 1.22968C25.9925 1.23819 26.2253 1.2467 26.4802 1.2552C26.7438 1.26371 27.0162 1.27222 27.2974 1.28073C27.5874 1.28073 27.8599 1.28498 28.1147 1.29349C28.3695 1.29349 28.5936 1.29774 28.787 1.30625C28.9891 1.30625 29.1341 1.30625 29.222 1.30625H36.7487C36.8366 1.30625 36.9772 1.30625 37.1705 1.30625C37.3726 1.29774 37.6011 1.29349 37.856 1.29349C38.1108 1.28498 38.3788 1.28073 38.66 1.28073C38.95 1.27222 39.2225 1.26371 39.4773 1.2552C39.7409 1.2467 39.9782 1.23819 40.1891 1.22968C40.4 1.22118 40.5582 1.21267 40.6637 1.20416L41.0459 3.27132C40.4835 3.1182 39.8508 2.97784 39.1478 2.85023C38.5414 2.74815 37.8208 2.65458 36.986 2.56951C36.1511 2.47593 35.2152 2.42915 34.1783 2.42915V14.6152C34.1783 15.3383 34.1871 15.972 34.2046 16.5165C34.231 17.0524 34.2574 17.516 34.2837 17.9073C34.3189 18.2986 34.3584 18.6261 34.4024 18.8899C34.4551 19.1536 34.5078 19.3747 34.5605 19.5534V19.6044H31.4101V19.5534C31.4628 19.3747 31.5112 19.1536 31.5551 18.8899C31.5991 18.6261 31.6386 18.2986 31.6738 17.9073C31.7089 17.516 31.7353 17.0524 31.7528 16.5165C31.7704 15.972 31.7792 15.3383 31.7792 14.6152V2.42915Z" fill="black"/>
<path d="M58.2348 4.1135L58.1162 4.16454C57.4307 3.55205 56.6047 3.06291 55.638 2.69711C54.6802 2.33132 53.6256 2.14842 52.4744 2.14842C51.3672 2.14842 50.3522 2.31856 49.4295 2.65883C48.5067 2.9906 47.7115 3.47549 47.0436 4.1135C46.3845 4.75151 45.8704 5.53414 45.5013 6.46138C45.1322 7.38863 44.9477 8.44347 44.9477 9.62592C44.9477 10.9275 45.1235 12.1439 45.475 13.2754C45.8265 14.3983 46.3493 15.3723 47.0436 16.1974C47.7378 17.0226 48.6034 17.6734 49.6404 18.1498C50.6861 18.6176 51.9032 18.8516 53.2917 18.8516C53.7926 18.8516 54.2935 18.8005 54.7944 18.6985C55.2953 18.5964 55.7742 18.4475 56.2312 18.2518C56.697 18.0477 57.132 17.8052 57.5362 17.5245C57.9492 17.2353 58.3227 16.9078 58.6566 16.542L58.8016 16.6313L57.7471 19.2344C57.088 19.4811 56.3586 19.6682 55.5589 19.7958C54.768 19.9319 53.9684 20 53.1599 20C51.5341 20 50.0446 19.7746 48.6913 19.3237C47.3468 18.8643 46.1868 18.2178 45.2113 17.3841C44.2447 16.5505 43.4889 15.5509 42.9441 14.3855C42.408 13.2116 42.14 11.91 42.14 10.4809C42.14 9.67271 42.2455 8.87732 42.4564 8.09469C42.6761 7.31207 42.9924 6.56772 43.4054 5.86165C43.8185 5.15559 44.3282 4.50907 44.9345 3.9221C45.5409 3.32662 46.2307 2.81195 47.004 2.37811C47.7862 1.94426 48.643 1.60824 49.5745 1.37005C50.5148 1.12335 51.5297 1 52.6194 1C54.3155 1 55.8885 1.25095 57.3385 1.75285L58.2348 4.1135Z" fill="black"/>
<path d="M74.2901 10.8509C73.9386 10.8424 73.4992 10.8381 72.9719 10.8381C72.4447 10.8296 71.8691 10.8211 71.2451 10.8126C70.63 10.8041 69.9841 10.7999 69.3074 10.7999C68.6396 10.7914 67.9849 10.7871 67.3434 10.7871C66.7019 10.7786 66.0911 10.7786 65.5111 10.7871C64.9311 10.7956 64.4258 10.8084 63.9952 10.8254V14.6152C63.9952 15.3383 64.004 15.972 64.0216 16.5165C64.0479 17.0524 64.0743 17.516 64.1007 17.9073C64.1358 18.2986 64.1754 18.6261 64.2193 18.8899C64.272 19.1536 64.3248 19.3747 64.3775 19.5534V19.6044H61.2139V19.5534C61.2666 19.3747 61.3149 19.1536 61.3589 18.8899C61.4116 18.6261 61.4555 18.2986 61.4907 17.9073C61.5258 17.516 61.5522 17.0524 61.5698 16.5165C61.5874 15.972 61.5962 15.3383 61.5962 14.6152V6.30826C61.5962 5.58518 61.5874 4.95567 61.5698 4.41974C61.5522 3.87531 61.5258 3.40743 61.4907 3.01612C61.4555 2.6163 61.4116 2.28453 61.3589 2.02082C61.3149 1.75711 61.2666 1.53593 61.2139 1.35729V1.30625H64.3775V1.35729C64.3248 1.53593 64.272 1.75711 64.2193 2.02082C64.1754 2.28453 64.1358 2.6163 64.1007 3.01612C64.0743 3.40743 64.0479 3.87531 64.0216 4.41974C64.004 4.95567 63.9952 5.58518 63.9952 6.30826V9.57488C64.4522 9.5919 64.9707 9.60466 65.5507 9.61316C66.1306 9.61316 66.737 9.61316 67.3697 9.61316C68.0024 9.60466 68.644 9.59615 69.2943 9.58764C69.9533 9.57914 70.5861 9.57063 71.1924 9.56212C71.8076 9.54511 72.3788 9.52809 72.906 9.51108C73.4421 9.49407 73.9034 9.47705 74.2901 9.46004V6.30826C74.2901 5.58518 74.2769 4.95567 74.2506 4.41974C74.233 3.87531 74.2066 3.40743 74.1715 3.01612C74.1451 2.6163 74.1056 2.28453 74.0528 2.02082C74.0089 1.75711 73.9606 1.53593 73.9078 1.35729V1.30625H77.0714V1.35729C77.0187 1.53593 76.966 1.75711 76.9133 2.02082C76.8693 2.28453 76.8298 2.6163 76.7946 3.01612C76.7595 3.40743 76.7331 3.87531 76.7155 4.41974C76.698 4.95567 76.6892 5.58518 76.6892 6.30826V14.6152C76.6892 15.3383 76.698 15.972 76.7155 16.5165C76.7331 17.0524 76.7595 17.516 76.7946 17.9073C76.8298 18.2986 76.8693 18.6261 76.9133 18.8899C76.966 19.1536 77.0187 19.3747 77.0714 19.5534V19.6044H73.9078V19.5534C73.9606 19.3747 74.0089 19.1536 74.0528 18.8899C74.1056 18.6261 74.1451 18.2986 74.1715 17.9073C74.2066 17.516 74.233 17.0524 74.2506 16.5165C74.2769 15.972 74.2901 15.3383 74.2901 14.6152V10.8509Z" fill="black"/>
<path d="M80.9732 19.5534C81.0259 19.3747 81.0743 19.1536 81.1182 18.8899C81.1621 18.6261 81.2017 18.2986 81.2368 17.9073C81.272 17.516 81.2984 17.0524 81.3159 16.5165C81.3335 15.972 81.3423 15.3383 81.3423 14.6152V6.30826C81.3423 5.58518 81.3335 4.95567 81.3159 4.41974C81.2984 3.87531 81.272 3.40743 81.2368 3.01612C81.2017 2.6163 81.1621 2.28453 81.1182 2.02082C81.0743 1.75711 81.0259 1.53593 80.9732 1.35729V1.30625H84.1236V1.35729C84.0709 1.53593 84.0182 1.75711 83.9655 2.02082C83.9215 2.28453 83.882 2.6163 83.8468 3.01612C83.8204 3.40743 83.7941 3.87531 83.7677 4.41974C83.7502 4.95567 83.7414 5.58518 83.7414 6.30826V14.6152C83.7414 15.3383 83.7502 15.972 83.7677 16.5165C83.7941 17.0524 83.8204 17.516 83.8468 17.9073C83.882 18.2986 83.9215 18.6261 83.9655 18.8899C84.0182 19.1536 84.0709 19.3747 84.1236 19.5534V19.6044H80.9732V19.5534Z" fill="black"/>
<path d="M88.7636 1.30625L102.341 15.2915V6.30826C102.341 5.58518 102.332 4.95567 102.314 4.41974C102.297 3.87531 102.27 3.40743 102.235 3.01612C102.2 2.6163 102.156 2.28453 102.103 2.02082C102.059 1.75711 102.011 1.53593 101.958 1.35729V1.30625H104.305V1.35729C104.252 1.53593 104.204 1.75711 104.16 2.02082C104.116 2.28453 104.076 2.6163 104.041 3.01612C104.006 3.40743 103.98 3.87531 103.962 4.41974C103.944 4.95567 103.936 5.58518 103.936 6.30826V19.8596H103.474L89.8972 5.88717V14.6152C89.8972 15.3383 89.906 15.972 89.9236 16.5165C89.9411 17.0524 89.9675 17.516 90.0027 17.9073C90.0378 18.2986 90.0774 18.6261 90.1213 18.8899C90.1652 19.1536 90.2136 19.3747 90.2663 19.5534V19.6044H87.92V19.5534C87.9727 19.3747 88.021 19.1536 88.0649 18.8899C88.1177 18.6261 88.1616 18.2986 88.1968 17.9073C88.2319 17.516 88.2583 17.0524 88.2759 16.5165C88.2934 15.972 88.3022 15.3383 88.3022 14.6152V6.30826C88.3022 5.58518 88.2934 4.95567 88.2759 4.41974C88.2583 3.87531 88.2319 3.40743 88.1968 3.01612C88.1616 2.6163 88.1177 2.28453 88.0649 2.02082C88.021 1.75711 87.9727 1.53593 87.92 1.35729V1.30625H88.7636Z" fill="black"/>
<path d="M124.618 17.4607C124.618 17.5543 124.605 17.6521 124.578 17.7542C124.561 17.8563 124.512 17.9413 124.433 18.0094C124.038 18.2986 123.607 18.5666 123.141 18.8133C122.684 19.0515 122.188 19.2599 121.652 19.4385C121.116 19.6172 120.536 19.7533 119.912 19.8469C119.297 19.949 118.633 20 117.921 20C116.322 20 114.863 19.7746 113.545 19.3237C112.227 18.8643 111.093 18.2178 110.144 17.3841C109.204 16.5505 108.475 15.5509 107.956 14.3855C107.438 13.2116 107.178 11.91 107.178 10.4809C107.178 9.67271 107.284 8.87732 107.495 8.09469C107.714 7.31207 108.031 6.56772 108.444 5.86165C108.857 5.15559 109.367 4.50907 109.973 3.9221C110.579 3.32662 111.269 2.81195 112.042 2.37811C112.825 1.94426 113.681 1.60824 114.613 1.37005C115.553 1.12335 116.568 1 117.658 1C118.08 1 118.51 1.02127 118.95 1.0638C119.389 1.09783 119.824 1.15312 120.255 1.22968C120.685 1.29774 121.098 1.38281 121.494 1.48489C121.898 1.58697 122.28 1.70181 122.64 1.82942L123.537 4.19006L123.431 4.2411C123.089 3.94336 122.693 3.66689 122.245 3.41169C121.797 3.15648 121.318 2.9353 120.808 2.74815C120.299 2.561 119.762 2.41639 119.2 2.3143C118.646 2.20372 118.084 2.14842 117.513 2.14842C116.406 2.14842 115.391 2.31856 114.468 2.65883C113.545 2.9906 112.75 3.47549 112.082 4.1135C111.423 4.75151 110.909 5.53414 110.54 6.46138C110.171 7.38863 109.986 8.44347 109.986 9.62592C109.986 10.9275 110.162 12.1354 110.513 13.2498C110.865 14.3642 111.388 15.3298 112.082 16.1464C112.776 16.9631 113.642 17.6053 114.679 18.0732C115.724 18.5326 116.942 18.7623 118.33 18.7623C118.945 18.7623 119.494 18.7155 119.978 18.6219C120.461 18.5283 120.87 18.4135 121.204 18.2774C121.538 18.1328 121.788 17.9796 121.955 17.818C122.131 17.6479 122.219 17.4947 122.219 17.3586V16.861C122.219 16.2655 122.21 15.7508 122.192 15.317C122.175 14.8831 122.148 14.5088 122.113 14.1941C122.078 13.8708 122.039 13.5944 121.995 13.3647C121.951 13.135 121.898 12.9223 121.836 12.7267V12.6756H125V12.7267C124.947 12.9053 124.895 13.118 124.842 13.3647C124.798 13.6029 124.758 13.8878 124.723 14.2196C124.688 14.5514 124.662 14.9427 124.644 15.3936C124.627 15.8359 124.618 16.3506 124.618 16.9375V17.4607Z" fill="black"/>
<path d="M3.78133 14.6152C3.78133 15.3383 3.79012 15.972 3.8077 16.5165C3.83406 17.0524 3.86042 17.516 3.88679 17.9073C3.92194 18.2986 3.96148 18.6261 4.00542 18.8899C4.05815 19.1536 4.11087 19.3747 4.1636 19.5534V19.6044H1V19.5534C1.05273 19.3747 1.10106 19.1536 1.145 18.8899C1.19773 18.6261 1.24166 18.2986 1.27682 17.9073C1.31197 17.516 1.33833 17.0524 1.35591 16.5165C1.37348 15.972 1.38227 15.3383 1.38227 14.6152V6.30826C1.38227 5.58518 1.37348 4.95567 1.35591 4.41974C1.33833 3.87531 1.31197 3.40743 1.27682 3.01612C1.24166 2.6163 1.19773 2.28453 1.145 2.02082C1.10106 1.75711 1.05273 1.53593 1 1.35729V1.30625C1.72939 1.30625 2.46756 1.30625 3.21452 1.30625C3.96148 1.29774 4.68647 1.29349 5.3895 1.29349C6.09252 1.28498 6.76039 1.27647 7.39311 1.26797C8.02583 1.25095 8.59704 1.23819 9.10673 1.22968C9.61642 1.21267 10.047 1.19566 10.3985 1.17864C10.75 1.15312 11.0005 1.1276 11.1499 1.10208L10.504 2.79919C10.214 2.72263 9.87566 2.65458 9.489 2.59503C9.15506 2.54399 8.74643 2.4972 8.2631 2.45467C7.78856 2.40363 7.23933 2.37811 6.61539 2.37811C6.40449 2.37811 6.14085 2.38661 5.82449 2.40363C5.50813 2.41213 5.19617 2.42489 4.88859 2.44191C4.53708 2.45892 4.168 2.47593 3.78133 2.49295V8.93687C4.68647 8.92836 5.51692 8.90284 6.27267 8.86031C7.02842 8.81777 7.67871 8.77524 8.22356 8.73271C8.85628 8.68167 9.42748 8.62212 9.93717 8.55406L9.54172 10.4043C8.88264 10.3277 8.21477 10.2554 7.53811 10.1874C6.95812 10.1278 6.33418 10.0768 5.66631 10.0343C4.99844 9.98321 4.37011 9.95769 3.78133 9.95769V14.6152Z" stroke="black" stroke-width="0.8"/>
<path d="M13.5753 1.30625C14.6738 1.30625 15.7635 1.30199 16.8444 1.29349C17.9341 1.28498 18.9315 1.27647 19.8366 1.26797C20.7418 1.25095 21.5151 1.22968 22.1566 1.20416C22.7981 1.17864 23.2331 1.14462 23.4616 1.10208L22.8157 2.79919C22.5257 2.72263 22.1873 2.65458 21.8007 2.59503C21.4667 2.54399 21.0581 2.4972 20.5748 2.45467C20.1002 2.40363 19.551 2.37811 18.9271 2.37811C18.7162 2.37811 18.4613 2.38661 18.1625 2.40363C17.8725 2.41213 17.5913 2.42489 17.3189 2.44191C17.0026 2.45892 16.6818 2.47593 16.3566 2.49295V9.46004C17.2618 9.45153 18.0791 9.42601 18.8084 9.38348C19.5378 9.34094 20.1574 9.29841 20.6671 9.25588C21.2646 9.20483 21.7919 9.14529 22.2489 9.07723L21.8402 10.9275C21.2339 10.8509 20.6143 10.7786 19.9816 10.7105C19.4368 10.651 18.8436 10.6 18.2021 10.5574C17.5606 10.5064 16.9454 10.4809 16.3566 10.4809V18.4815C17.3936 18.4815 18.3471 18.439 19.2171 18.3539C20.0871 18.2689 20.8472 18.171 21.4975 18.0604C22.2533 17.9413 22.9431 17.801 23.567 17.6394L23.1848 19.7065C23.0793 19.698 22.9211 19.6895 22.7102 19.681C22.4993 19.6725 22.262 19.664 21.9984 19.6555C21.7436 19.647 21.4711 19.6385 21.1811 19.63C20.8999 19.63 20.6319 19.6257 20.3771 19.6172C20.1222 19.6172 19.8937 19.6129 19.6916 19.6044C19.4983 19.6044 19.3577 19.6044 19.2698 19.6044H13.5753V19.5534C13.628 19.3747 13.6764 19.1536 13.7203 18.8899C13.773 18.6261 13.817 18.2986 13.8521 17.9073C13.8873 17.516 13.9136 17.0524 13.9312 16.5165C13.9488 15.972 13.9576 15.3383 13.9576 14.6152V6.30826C13.9576 5.58518 13.9488 4.95567 13.9312 4.41974C13.9136 3.87531 13.8873 3.40743 13.8521 3.01612C13.817 2.6163 13.773 2.28453 13.7203 2.02082C13.6764 1.75711 13.628 1.53593 13.5753 1.35729V1.30625Z" stroke="black" stroke-width="0.8"/>
<path d="M31.7792 2.42915C30.7422 2.42915 29.8063 2.47593 28.9715 2.56951C28.1367 2.65458 27.4161 2.74815 26.8097 2.85023C26.1067 2.97784 25.4784 3.1182 24.9247 3.27132L25.307 1.20416C25.4125 1.21267 25.5706 1.22118 25.7815 1.22968C25.9925 1.23819 26.2253 1.2467 26.4802 1.2552C26.7438 1.26371 27.0162 1.27222 27.2974 1.28073C27.5874 1.28073 27.8599 1.28498 28.1147 1.29349C28.3695 1.29349 28.5936 1.29774 28.787 1.30625C28.9891 1.30625 29.1341 1.30625 29.222 1.30625H36.7487C36.8366 1.30625 36.9772 1.30625 37.1705 1.30625C37.3726 1.29774 37.6011 1.29349 37.856 1.29349C38.1108 1.28498 38.3788 1.28073 38.66 1.28073C38.95 1.27222 39.2225 1.26371 39.4773 1.2552C39.7409 1.2467 39.9782 1.23819 40.1891 1.22968C40.4 1.22118 40.5582 1.21267 40.6637 1.20416L41.0459 3.27132C40.4835 3.1182 39.8508 2.97784 39.1478 2.85023C38.5414 2.74815 37.8208 2.65458 36.986 2.56951C36.1511 2.47593 35.2152 2.42915 34.1783 2.42915V14.6152C34.1783 15.3383 34.1871 15.972 34.2046 16.5165C34.231 17.0524 34.2574 17.516 34.2837 17.9073C34.3189 18.2986 34.3584 18.6261 34.4024 18.8899C34.4551 19.1536 34.5078 19.3747 34.5605 19.5534V19.6044H31.4101V19.5534C31.4628 19.3747 31.5112 19.1536 31.5551 18.8899C31.5991 18.6261 31.6386 18.2986 31.6738 17.9073C31.7089 17.516 31.7353 17.0524 31.7528 16.5165C31.7704 15.972 31.7792 15.3383 31.7792 14.6152V2.42915Z" stroke="black" stroke-width="0.8"/>
<path d="M58.2348 4.1135L58.1162 4.16454C57.4307 3.55205 56.6047 3.06291 55.638 2.69711C54.6802 2.33132 53.6256 2.14842 52.4744 2.14842C51.3672 2.14842 50.3522 2.31856 49.4295 2.65883C48.5067 2.9906 47.7115 3.47549 47.0436 4.1135C46.3845 4.75151 45.8704 5.53414 45.5013 6.46138C45.1322 7.38863 44.9477 8.44347 44.9477 9.62592C44.9477 10.9275 45.1235 12.1439 45.475 13.2754C45.8265 14.3983 46.3493 15.3723 47.0436 16.1974C47.7378 17.0226 48.6034 17.6734 49.6404 18.1498C50.6861 18.6176 51.9032 18.8516 53.2917 18.8516C53.7926 18.8516 54.2935 18.8005 54.7944 18.6985C55.2953 18.5964 55.7742 18.4475 56.2312 18.2518C56.697 18.0477 57.132 17.8052 57.5362 17.5245C57.9492 17.2353 58.3227 16.9078 58.6566 16.542L58.8016 16.6313L57.7471 19.2344C57.088 19.4811 56.3586 19.6682 55.5589 19.7958C54.768 19.9319 53.9684 20 53.1599 20C51.5341 20 50.0446 19.7746 48.6913 19.3237C47.3468 18.8643 46.1868 18.2178 45.2113 17.3841C44.2447 16.5505 43.4889 15.5509 42.9441 14.3855C42.408 13.2116 42.14 11.91 42.14 10.4809C42.14 9.67271 42.2455 8.87732 42.4564 8.09469C42.6761 7.31207 42.9924 6.56772 43.4054 5.86165C43.8185 5.15559 44.3282 4.50907 44.9345 3.9221C45.5409 3.32662 46.2307 2.81195 47.004 2.37811C47.7862 1.94426 48.643 1.60824 49.5745 1.37005C50.5148 1.12335 51.5297 1 52.6194 1C54.3155 1 55.8885 1.25095 57.3385 1.75285L58.2348 4.1135Z" stroke="black" stroke-width="0.8"/>
<path d="M74.2901 10.8509C73.9386 10.8424 73.4992 10.8381 72.9719 10.8381C72.4447 10.8296 71.8691 10.8211 71.2451 10.8126C70.63 10.8041 69.9841 10.7999 69.3074 10.7999C68.6396 10.7914 67.9849 10.7871 67.3434 10.7871C66.7019 10.7786 66.0911 10.7786 65.5111 10.7871C64.9311 10.7956 64.4258 10.8084 63.9952 10.8254V14.6152C63.9952 15.3383 64.004 15.972 64.0216 16.5165C64.0479 17.0524 64.0743 17.516 64.1007 17.9073C64.1358 18.2986 64.1754 18.6261 64.2193 18.8899C64.272 19.1536 64.3248 19.3747 64.3775 19.5534V19.6044H61.2139V19.5534C61.2666 19.3747 61.3149 19.1536 61.3589 18.8899C61.4116 18.6261 61.4555 18.2986 61.4907 17.9073C61.5258 17.516 61.5522 17.0524 61.5698 16.5165C61.5874 15.972 61.5962 15.3383 61.5962 14.6152V6.30826C61.5962 5.58518 61.5874 4.95567 61.5698 4.41974C61.5522 3.87531 61.5258 3.40743 61.4907 3.01612C61.4555 2.6163 61.4116 2.28453 61.3589 2.02082C61.3149 1.75711 61.2666 1.53593 61.2139 1.35729V1.30625H64.3775V1.35729C64.3248 1.53593 64.272 1.75711 64.2193 2.02082C64.1754 2.28453 64.1358 2.6163 64.1007 3.01612C64.0743 3.40743 64.0479 3.87531 64.0216 4.41974C64.004 4.95567 63.9952 5.58518 63.9952 6.30826V9.57488C64.4522 9.5919 64.9707 9.60466 65.5507 9.61316C66.1306 9.61316 66.737 9.61316 67.3697 9.61316C68.0024 9.60466 68.644 9.59615 69.2943 9.58764C69.9533 9.57914 70.5861 9.57063 71.1924 9.56212C71.8076 9.54511 72.3788 9.52809 72.906 9.51108C73.4421 9.49407 73.9034 9.47705 74.2901 9.46004V6.30826C74.2901 5.58518 74.2769 4.95567 74.2506 4.41974C74.233 3.87531 74.2066 3.40743 74.1715 3.01612C74.1451 2.6163 74.1056 2.28453 74.0528 2.02082C74.0089 1.75711 73.9606 1.53593 73.9078 1.35729V1.30625H77.0714V1.35729C77.0187 1.53593 76.966 1.75711 76.9133 2.02082C76.8693 2.28453 76.8298 2.6163 76.7946 3.01612C76.7595 3.40743 76.7331 3.87531 76.7155 4.41974C76.698 4.95567 76.6892 5.58518 76.6892 6.30826V14.6152C76.6892 15.3383 76.698 15.972 76.7155 16.5165C76.7331 17.0524 76.7595 17.516 76.7946 17.9073C76.8298 18.2986 76.8693 18.6261 76.9133 18.8899C76.966 19.1536 77.0187 19.3747 77.0714 19.5534V19.6044H73.9078V19.5534C73.9606 19.3747 74.0089 19.1536 74.0528 18.8899C74.1056 18.6261 74.1451 18.2986 74.1715 17.9073C74.2066 17.516 74.233 17.0524 74.2506 16.5165C74.2769 15.972 74.2901 15.3383 74.2901 14.6152V10.8509Z" stroke="black" stroke-width="0.8"/>
<path d="M80.9732 19.5534C81.0259 19.3747 81.0743 19.1536 81.1182 18.8899C81.1621 18.6261 81.2017 18.2986 81.2368 17.9073C81.272 17.516 81.2984 17.0524 81.3159 16.5165C81.3335 15.972 81.3423 15.3383 81.3423 14.6152V6.30826C81.3423 5.58518 81.3335 4.95567 81.3159 4.41974C81.2984 3.87531 81.272 3.40743 81.2368 3.01612C81.2017 2.6163 81.1621 2.28453 81.1182 2.02082C81.0743 1.75711 81.0259 1.53593 80.9732 1.35729V1.30625H84.1236V1.35729C84.0709 1.53593 84.0182 1.75711 83.9655 2.02082C83.9215 2.28453 83.882 2.6163 83.8468 3.01612C83.8204 3.40743 83.7941 3.87531 83.7677 4.41974C83.7502 4.95567 83.7414 5.58518 83.7414 6.30826V14.6152C83.7414 15.3383 83.7502 15.972 83.7677 16.5165C83.7941 17.0524 83.8204 17.516 83.8468 17.9073C83.882 18.2986 83.9215 18.6261 83.9655 18.8899C84.0182 19.1536 84.0709 19.3747 84.1236 19.5534V19.6044H80.9732V19.5534Z" stroke="black" stroke-width="0.8"/>
<path d="M88.7636 1.30625L102.341 15.2915V6.30826C102.341 5.58518 102.332 4.95567 102.314 4.41974C102.297 3.87531 102.27 3.40743 102.235 3.01612C102.2 2.6163 102.156 2.28453 102.103 2.02082C102.059 1.75711 102.011 1.53593 101.958 1.35729V1.30625H104.305V1.35729C104.252 1.53593 104.204 1.75711 104.16 2.02082C104.116 2.28453 104.076 2.6163 104.041 3.01612C104.006 3.40743 103.98 3.87531 103.962 4.41974C103.944 4.95567 103.936 5.58518 103.936 6.30826V19.8596H103.474L89.8972 5.88717V14.6152C89.8972 15.3383 89.906 15.972 89.9236 16.5165C89.9411 17.0524 89.9675 17.516 90.0027 17.9073C90.0378 18.2986 90.0774 18.6261 90.1213 18.8899C90.1652 19.1536 90.2136 19.3747 90.2663 19.5534V19.6044H87.92V19.5534C87.9727 19.3747 88.021 19.1536 88.0649 18.8899C88.1177 18.6261 88.1616 18.2986 88.1968 17.9073C88.2319 17.516 88.2583 17.0524 88.2759 16.5165C88.2934 15.972 88.3022 15.3383 88.3022 14.6152V6.30826C88.3022 5.58518 88.2934 4.95567 88.2759 4.41974C88.2583 3.87531 88.2319 3.40743 88.1968 3.01612C88.1616 2.6163 88.1177 2.28453 88.0649 2.02082C88.021 1.75711 87.9727 1.53593 87.92 1.35729V1.30625H88.7636Z" stroke="black" stroke-width="0.8"/>
<path d="M124.618 17.4607C124.618 17.5543 124.605 17.6521 124.578 17.7542C124.561 17.8563 124.512 17.9413 124.433 18.0094C124.038 18.2986 123.607 18.5666 123.141 18.8133C122.684 19.0515 122.188 19.2599 121.652 19.4385C121.116 19.6172 120.536 19.7533 119.912 19.8469C119.297 19.949 118.633 20 117.921 20C116.322 20 114.863 19.7746 113.545 19.3237C112.227 18.8643 111.093 18.2178 110.144 17.3841C109.204 16.5505 108.475 15.5509 107.956 14.3855C107.438 13.2116 107.178 11.91 107.178 10.4809C107.178 9.67271 107.284 8.87732 107.495 8.09469C107.714 7.31207 108.031 6.56772 108.444 5.86165C108.857 5.15559 109.367 4.50907 109.973 3.9221C110.579 3.32662 111.269 2.81195 112.042 2.37811C112.825 1.94426 113.681 1.60824 114.613 1.37005C115.553 1.12335 116.568 1 117.658 1C118.08 1 118.51 1.02127 118.95 1.0638C119.389 1.09783 119.824 1.15312 120.255 1.22968C120.685 1.29774 121.098 1.38281 121.494 1.48489C121.898 1.58697 122.28 1.70181 122.64 1.82942L123.537 4.19006L123.431 4.2411C123.089 3.94336 122.693 3.66689 122.245 3.41169C121.797 3.15648 121.318 2.9353 120.808 2.74815C120.299 2.561 119.762 2.41639 119.2 2.3143C118.646 2.20372 118.084 2.14842 117.513 2.14842C116.406 2.14842 115.391 2.31856 114.468 2.65883C113.545 2.9906 112.75 3.47549 112.082 4.1135C111.423 4.75151 110.909 5.53414 110.54 6.46138C110.171 7.38863 109.986 8.44347 109.986 9.62592C109.986 10.9275 110.162 12.1354 110.513 13.2498C110.865 14.3642 111.388 15.3298 112.082 16.1464C112.776 16.9631 113.642 17.6053 114.679 18.0732C115.724 18.5326 116.942 18.7623 118.33 18.7623C118.945 18.7623 119.494 18.7155 119.978 18.6219C120.461 18.5283 120.87 18.4135 121.204 18.2774C121.538 18.1328 121.788 17.9796 121.955 17.818C122.131 17.6479 122.219 17.4947 122.219 17.3586V16.861C122.219 16.2655 122.21 15.7508 122.192 15.317C122.175 14.8831 122.148 14.5088 122.113 14.1941C122.078 13.8708 122.039 13.5944 121.995 13.3647C121.951 13.135 121.898 12.9223 121.836 12.7267V12.6756H125V12.7267C124.947 12.9053 124.895 13.118 124.842 13.3647C124.798 13.6029 124.758 13.8878 124.723 14.2196C124.688 14.5514 124.662 14.9427 124.644 15.3936C124.627 15.8359 124.618 16.3506 124.618 16.9375V17.4607Z" stroke="black" stroke-width="0.8"/>
</svg>
